<svg width="1024" height="1024" viewBox="0 0 1024 1024" fill="none" xmlns="http://www.w3.org/2000/svg">
  <defs>
    <radialGradient id="bg" cx="0" cy="0" r="1" gradientUnits="userSpaceOnUse" gradientTransform="translate(512 456) rotate(90) scale(508)">
      <stop offset="0" stop-color="#FBF8F1"/>
      <stop offset="0.62" stop-color="#F6F3ED"/>
      <stop offset="1" stop-color="#F1F1F3"/>
    </radialGradient>
    <radialGradient id="coinLeft" cx="0" cy="0" r="1" gradientUnits="userSpaceOnUse" gradientTransform="translate(302 404) rotate(120) scale(184)">
      <stop offset="0" stop-color="#C08A45"/>
      <stop offset="0.48" stop-color="#93602D"/>
      <stop offset="1" stop-color="#5B3518"/>
    </radialGradient>
    <radialGradient id="coinMain" cx="0" cy="0" r="1" gradientUnits="userSpaceOnUse" gradientTransform="translate(512 330) rotate(118) scale(236)">
      <stop offset="0" stop-color="#C8944E"/>
      <stop offset="0.48" stop-color="#986431"/>
      <stop offset="1" stop-color="#60391B"/>
    </radialGradient>
    <radialGradient id="coinRight" cx="0" cy="0" r="1" gradientUnits="userSpaceOnUse" gradientTransform="translate(702 440) rotate(120) scale(174)">
      <stop offset="0" stop-color="#B87D3C"/>
      <stop offset="0.5" stop-color="#89582A"/>
      <stop offset="1" stop-color="#573217"/>
    </radialGradient>
    <filter id="drop" x="-20%" y="-20%" width="140%" height="150%" color-interpolation-filters="sRGB">
      <feDropShadow dx="0" dy="18" stdDeviation="16" flood-color="#241307" flood-opacity="0.16"/>
    </filter>
  </defs>

  <rect width="1024" height="1024" rx="224" fill="url(#bg)"/>
  <ellipse cx="512" cy="696" rx="326" ry="60" fill="#2A1B0C" fill-opacity="0.075"/>

  <g transform="translate(190 318) rotate(-13 128 128)" filter="url(#drop)">
    <circle cx="128" cy="128" r="126" fill="url(#coinLeft)" stroke="#583215" stroke-width="8"/>
    <circle cx="128" cy="128" r="103" stroke="#D0A05E" stroke-opacity="0.58" stroke-width="8"/>
    <circle cx="128" cy="128" r="76" stroke="#70451F" stroke-opacity="0.34" stroke-width="4"/>
    <path d="M64 90C82 58 113 44 147 48" stroke="#E0B66E" stroke-opacity="0.7" stroke-width="17" stroke-linecap="round"/>
    <rect x="96" y="96" width="64" height="64" rx="8" fill="#F8F7F4" stroke="#70451F" stroke-width="7"/>
    <circle cx="82" cy="166" r="22" fill="#5E552E" fill-opacity="0.38"/>
  </g>

  <g transform="translate(338 222) rotate(4 174 174)" filter="url(#drop)">
    <circle cx="174" cy="174" r="170" fill="url(#coinMain)" stroke="#583215" stroke-width="10"/>
    <circle cx="174" cy="174" r="139" stroke="#D0A05E" stroke-opacity="0.62" stroke-width="9"/>
    <circle cx="174" cy="174" r="104" stroke="#70451F" stroke-opacity="0.34" stroke-width="4"/>
    <path d="M88 125C114 78 157 56 204 61" stroke="#E0B66E" stroke-opacity="0.74" stroke-width="22" stroke-linecap="round"/>
    <rect x="130" y="130" width="88" height="88" rx="11" fill="#F8F7F4" stroke="#70451F" stroke-width="9"/>
    <circle cx="112" cy="222" r="28" fill="#5E552E" fill-opacity="0.34"/>
  </g>

  <g transform="translate(602 354) rotate(14 118 118)" filter="url(#drop)">
    <circle cx="118" cy="118" r="116" fill="url(#coinRight)" stroke="#583215" stroke-width="8"/>
    <circle cx="118" cy="118" r="95" stroke="#D0A05E" stroke-opacity="0.55" stroke-width="8"/>
    <circle cx="118" cy="118" r="70" stroke="#70451F" stroke-opacity="0.32" stroke-width="4"/>
    <path d="M60 84C77 54 105 42 136 45" stroke="#E0B66E" stroke-opacity="0.68" stroke-width="16" stroke-linecap="round"/>
    <rect x="88" y="88" width="60" height="60" rx="8" fill="#F8F7F4" stroke="#70451F" stroke-width="7"/>
    <circle cx="76" cy="153" r="20" fill="#5E552E" fill-opacity="0.36"/>
  </g>
</svg>
